<svg xmlns="http://www.w3.org/2000/svg" version="1.1" xmlns:xlink="http://www.w3.org/1999/xlink" xmlns:svgjs="http://svgjs.dev/svgjs" width="1000" height="1125" viewBox="0 0 1000 1125"><g transform="matrix(1,0,0,1,0.0011008540699322111,0)"><svg viewBox="0 0 320 360" data-background-color="#ffffff" preserveAspectRatio="xMidYMid meet" height="1125" width="1000" xmlns="http://www.w3.org/2000/svg" xmlns:xlink="http://www.w3.org/1999/xlink"><g id="tight-bounds" transform="matrix(1,0,0,1,0.00010353528136874957,0)"><svg viewBox="0 0 320 360" height="360" width="320"><g><svg></svg></g><g><svg viewBox="0 0 320 360" height="360" width="320"><g><path xmlns="http://www.w3.org/2000/svg" d="M307.925 179.999l6.575-11.387c11.322-19.607 4.604-44.679-15.003-56.001l-11.387-6.575v-13.151c0-22.639-18.354-40.994-40.994-40.994h-13.151l-6.575-11.387c-11.322-19.607-36.393-26.325-56.001-15.003l-11.39 6.572-11.387-6.576c-19.607-11.318-44.679-4.6-56.001 15.007l-6.575 11.387h-13.151c-22.639 0-40.994 18.354-40.994 40.994v13.151l-11.387 6.575c-19.607 11.322-26.325 36.393-15.003 56.001l6.572 11.387-6.576 11.387c-11.318 19.607-4.6 44.679 15.007 56l11.387 6.576v13.15c0 22.639 18.354 40.994 40.994 40.994h13.151l6.575 11.387c11.322 19.607 36.393 26.325 56.001 15.003l11.387-6.571 11.387 6.575c19.607 11.322 44.679 4.604 56-15.003l6.576-11.387h13.15c22.639 0 40.994-18.354 40.994-40.994v-13.151l11.387-6.575c19.607-11.322 26.325-36.393 15.003-56.001zM297.702 115.716c8.655 4.996 14.842 13.062 17.428 22.713 2.586 9.65 1.261 19.734-3.735 28.384l-5.538 9.596-17.747-30.74v-35.494zM251.155 271.155l-57.791 33.365h-66.731l-57.791-33.365-33.365-57.791v-66.731l33.365-57.791 57.791-33.365h66.731l57.791 33.365 33.365 57.791v66.731zM284.517 220.539v31.351l-27.151 15.676zM247.566 277.366l-15.676 27.151h-31.351zM187.15 308.106l-27.151 15.676-27.151-15.676zM119.459 304.517h-31.352l-15.676-27.151zM62.632 267.566l-27.151-15.676v-31.351zM31.891 207.15l-15.675-27.151 15.675-27.151zM35.481 139.459v-31.352l27.151-15.676zM72.431 82.632l15.676-27.151h31.352zM132.848 51.891l27.151-15.675 27.151 15.675zM200.539 55.481h31.351l15.676 27.151zM257.366 92.431l27.151 15.676v31.352zM288.106 152.848l15.676 27.151-15.676 27.151zM247.112 55.481c9.992 0 19.384 3.889 26.452 10.956 7.063 7.063 10.956 16.46 10.957 26.452v11.079l-30.741-17.747-17.747-30.74zM173.18 28.606c8.655-4.996 18.735-6.322 28.385-3.735 9.65 2.586 17.716 8.777 22.712 17.428l5.538 9.596h-35.494l-30.741-17.747zM95.716 42.295c4.996-8.655 13.062-14.842 22.713-17.428 9.65-2.586 19.734-1.261 28.384 3.736l9.596 5.537-30.74 17.747h-35.494zM35.481 92.885c0-9.992 3.889-19.384 10.956-26.452 7.063-7.063 16.46-10.956 26.452-10.956h11.079l-17.747 30.74-30.74 17.747zM8.606 166.817c-4.996-8.655-6.322-18.735-3.735-28.385 2.586-9.65 8.777-17.716 17.428-22.712l9.596-5.538v35.495l-17.747 30.74zM22.295 244.281c-8.655-4.996-14.842-13.062-17.428-22.712-2.586-9.65-1.261-19.734 3.736-28.385l5.537-9.596 17.747 30.74v35.495zM72.885 304.517c-9.992 0-19.384-3.889-26.452-10.957-7.063-7.063-10.956-16.46-10.956-26.451v-11.08l30.74 17.747 17.747 30.741zM146.817 331.391c-8.655 4.996-18.735 6.322-28.385 3.735-9.65-2.586-17.716-8.777-22.712-17.428l-5.538-9.596h35.495l30.74 17.747zM224.281 317.702c-4.996 8.655-13.062 14.842-22.712 17.428-9.65 2.586-19.734 1.261-28.385-3.735l-9.596-5.538 30.74-17.747h35.495zM284.517 267.112c0 9.992-3.889 19.384-10.957 26.452-7.063 7.063-16.46 10.956-26.451 10.957h-11.08l17.747-30.741 30.741-17.747zM315.13 221.565c-2.586 9.65-8.777 17.716-17.428 22.712l-9.596 5.538v-35.494l17.747-30.741 5.538 9.596c4.996 8.658 6.326 18.739 3.739 28.389z" fill="#ffffff" fill-rule="nonzero" stroke="none" stroke-width="1" stroke-linecap="butt" stroke-linejoin="miter" stroke-miterlimit="10" stroke-dasharray="" stroke-dashoffset="0" font-family="none" font-weight="none" font-size="none" text-anchor="none" style="mix-blend-mode: normal" data-fill-palette-color="tertiary"></path></g><g transform="matrix(1,0,0,1,73.63282905773062,90)"><svg viewBox="0 0 172.73434188453876 180" height="180" width="172.73434188453876"><g><svg viewBox="0 0 192.95999999999998 201.07640218536582" height="180" width="172.73434188453876"><g><rect width="192.95999999999998" height="6.158704624390243" x="0" y="110.50275121951219" fill="#ffffff" opacity="1" stroke-width="0" stroke="transparent" fill-opacity="1" class="rect-o-0" data-fill-palette-color="primary" rx="1%" id="o-0" data-palette-color="#ff0000"></rect></g><g transform="matrix(1,0,0,1,0.47999999999998977,132.78371925853656)"><svg viewBox="0 0 192 68.29268292682926" height="68.29268292682926" width="192"><g id="textblocktransform"><svg viewBox="0 0 192 68.29268292682926" height="68.29268292682926" width="192" id="textblock"><g><svg viewBox="0 0 192 68.29268292682926" height="68.29268292682926" width="192"><g transform="matrix(1,0,0,1,0,0)"><svg width="192" viewBox="1.25 -37.95000076293945 147.58999633789062 52.5" height="68.29268292682926" data-palette-color="#ff0000"><path d="M10.5-10.25L10.5-10.25Q10.5-6.8 15.48-6.8 20.45-6.8 20.45-9.9L20.45-9.9Q20.45-11.55 18.75-12.6 17.05-13.65 14.63-14.35 12.2-15.05 9.78-15.98 7.35-16.9 5.65-18.88 3.95-20.85 3.95-23.8L3.95-23.8Q3.95-36.35 20.1-36.35L20.1-36.35Q26-36.35 29.03-34.13 32.05-31.9 32.05-27.95L32.05-27.95Q32.05-26.5 31.68-25.18 31.3-23.85 30.9-23.3L30.9-23.3 30.5-22.7 21.65-22.7Q22.75-23.85 22.75-25.6L22.75-25.6Q22.75-28.85 18.5-28.85L18.5-28.85Q13.15-28.85 13.15-25.45L13.15-25.45Q13.15-23.75 14.85-22.75 16.55-21.75 18.98-21.18 21.4-20.6 23.85-19.75 26.3-18.9 28-16.93 29.7-14.95 29.7-11.8L29.7-11.8Q29.7-5.45 25.9-2.38 22.1 0.7 14.2 0.7 6.3 0.7 3.4-2.1L3.4-2.1Q1.25-4.2 1.25-7.9L1.25-7.9Q1.25-9.3 1.55-10.95L1.55-10.95 1.7-11.75 10.7-11.75 10.6-11.15Q10.5-10.65 10.5-10.25ZM59.45-6.4L59.45-6.4Q60.6-6.4 61.5-6.9L61.5-6.9 61.25-1.25Q58.9 0.7 55.9 0.7L55.9 0.7Q49.1 0.7 49.1-5L49.1-5Q49.1-6 49.3-7.15L49.3-7.15 50.4-13.3Q50.55-14.2 50.55-15.1L50.55-15.1Q50.55-17.5 48.02-17.5 45.5-17.5 44.1-15.8L44.1-15.8 41.3 0 32.8 0 39.5-37.95 48-37.95 45.15-21.8Q47.9-24.75 52.05-24.75L52.05-24.75Q57.1-24.75 58.6-22.5L58.6-22.5Q59.65-21 59.65-19.15 59.65-17.3 59.35-15.75L59.35-15.75 58-8.3Q57.95-8 57.95-7.75L57.95-7.75Q57.95-6.4 59.45-6.4ZM87.9-7.7L87.9-7.7Q87.9-6.4 89.22-6.4 90.55-6.4 91.45-6.9L91.45-6.9 91.2-1.25Q88.8 0.7 85.8 0.7L85.8 0.7Q80.3 0.7 79.7-3.3L79.7-3.3Q77.2 0.7 72.34 0.7L72.34 0.7Q64.15 0.7 64.15-6.35L64.15-6.35Q64.15-7.55 64.4-9L64.4-9 65.45-14.85Q66.25-19.35 69.12-22.03 72-24.7 76.62-24.7 81.25-24.7 82.9-22.55L82.9-22.55 83.15-24.05 90.75-24.05 87.95-8.3Q87.9-8 87.9-7.7ZM73.75-13.85L73.09-10.1Q73-9.65 73-8.85 73-8.05 73.75-7.28 74.5-6.5 76.27-6.5 78.05-6.5 79.34-7.9L79.34-7.9 80.84-16.3Q80.3-17.55 78.25-17.55L78.25-17.55Q74.4-17.55 73.75-13.85L73.75-13.85ZM106.44-24.05L104.09-10.75Q103.94-9.85 103.94-8.95L103.94-8.95Q103.94-6.55 106.64-6.55L106.64-6.55Q108.84-6.55 110.29-8.1L110.29-8.1 113.09-24.05 121.59-24.05 117.19 0.8Q116.09 7.15 112.17 10.85 108.24 14.55 103.19 14.55 98.14 14.55 95.92 12.7 93.69 10.85 93.69 7.85L93.69 7.85Q93.69 3.6 98.94 0.3L98.94 0.3Q96.09-0.4 95.34-2.55L95.34-2.55Q94.89-3.75 94.89-5.25 94.89-6.75 95.14-8.3L95.14-8.3 97.94-24.05 106.44-24.05ZM104.34 7.4L104.34 7.4Q107.59 7.4 108.59 1.5L108.59 1.5 109.09-1.4Q102.14 1.85 102.14 5.15L102.14 5.15Q102.14 6.15 102.72 6.78 103.29 7.4 104.34 7.4ZM140.39-24.7L140.39-24.7Q145.49-24.7 147.44-22L147.44-22Q148.84-20.15 148.84-17.3L148.84-17.3Q148.84-16.15 148.59-14.85L148.59-14.85 147.59-9Q146.74-4.25 143.94-1.78 141.14 0.7 136.94 0.7 132.74 0.7 131.09-1.55L131.09-1.55 128.39 13.9 119.89 13.9 126.59-24.05 134.29-24.05 134.04-22.7Q136.39-24.7 140.39-24.7ZM135.19-6.5L135.19-6.5Q136.59-6.5 137.79-7.4 138.99-8.3 139.29-10.1L139.29-10.1 139.94-13.85Q140.04-14.35 140.04-15.1 140.04-15.85 139.39-16.7 138.74-17.55 137.14-17.55L137.14-17.55Q134.54-17.55 133.74-16.3L133.74-16.3 132.24-7.9Q132.94-6.5 135.19-6.5Z" opacity="1" transform="matrix(1,0,0,1,0,0)" fill="#ffffff" class="undefined-text-0" data-fill-palette-color="primary" id="text-0"></path></svg></g></svg></g></svg></g></svg></g><g transform="matrix(1,0,0,1,50.23356097560975,0)"><svg viewBox="0 0 92.49287804878048 94.38048780487804" height="94.38048780487804" width="92.49287804878048"><g><svg xmlns="http://www.w3.org/2000/svg" xmlns:xlink="http://www.w3.org/1999/xlink" version="1.1" x="0" y="0" viewBox="0 0 98 100" enable-background="new 0 0 100 100" xml:space="preserve" height="94.38048780487804" width="92.49287804878048" class="icon-icon-0" data-fill-palette-color="accent" id="icon-0"><g fill="#ff0000" data-fill-palette-color="accent"><circle cx="49.494" cy="6.603" r="2.1" fill="#ffffff" data-fill-palette-color="accent"></circle><path d="M18.267 34.851l6.123-7.465c0.518-0.63 0.425-1.56-0.204-2.076-0.629-0.517-1.56-0.424-2.076 0.204l-6.972 8.499c-0.481 0.586-0.439 1.443 0.098 1.979l7.593 7.591c0.288 0.289 0.665 0.433 1.042 0.433 0.378 0 0.755-0.144 1.043-0.433 0.576-0.576 0.576-1.51 0-2.086L18.267 34.851z" fill="#ffffff" data-fill-palette-color="accent"></path><path d="M44.093 32.998L36.5 25.406c-0.576-0.576-1.509-0.576-2.086 0-0.576 0.577-0.576 1.511 0 2.087l6.647 6.646-6.123 7.465c-0.516 0.63-0.424 1.56 0.206 2.077 0.274 0.225 0.605 0.334 0.935 0.334 0.427 0 0.851-0.185 1.142-0.54l6.97-8.499C44.671 34.39 44.63 33.534 44.093 32.998z" fill="#ffffff" data-fill-palette-color="accent"></path><path d="M88.568 0H9.432C4.491 0 0 4.02 0 8.96v55.608C0 69.51 4.491 74 9.432 74h31.279c0.159 2 0.311 8.268-0.323 10.369-1.163 1.729-13.49 5.365-24.164 7.854C15.56 92.379 15 92.854 15 93.537v4.992c0 0.813 0.835 1.471 1.647 1.471h64.707C82.166 100 83 99.342 83 98.529v-4.992c0-0.684-0.559-1.277-1.225-1.434-10.732-2.486-23.082-6.008-24.202-7.625C56.896 82.277 56.925 76 57.039 74h31.529C93.508 74 98 69.51 98 64.568V8.96C98 4.02 93.508 0 88.568 0zM80 94.703V97H18v-2.298c11-2.638 24.097-6.121 25.095-9.362C43.963 82.512 43.796 76 43.657 74h10.438c-0.104 2-0.188 8.514 0.682 11.343C55.773 88.583 69 92.064 80 94.703zM95 64.98c0 3.326-3.695 6.02-7.02 6.02H9.02C5.695 71 3 68.307 3 64.98V9.019C3 5.695 5.695 3 9.02 3h78.96C91.305 3 95 5.695 95 9.019V64.98z" fill="#ffffff" data-fill-palette-color="accent"></path><path d="M88.529 12H9.471C8.659 12 8 12.659 8 13.471v44.058C8 58.342 8.659 59 9.471 59h79.058C89.342 59 90 58.342 90 57.529V13.471C90 12.659 89.342 12 88.529 12zM11 15h37v41H11V15zM87 56H51V15h36V56z" fill="#ffffff" data-fill-palette-color="accent"></path><path d="M54.5 36h29c0.828 0 1.5-0.671 1.5-1.5v-16c0-0.829-0.672-1.5-1.5-1.5h-29c-0.828 0-1.5 0.671-1.5 1.5v16C53 35.329 53.672 36 54.5 36zM56 20h26v13H56V20z" fill="#ffffff" data-fill-palette-color="accent"></path><path d="M83 39H55c-0.828 0-1.5 0.671-1.5 1.5S54.172 42 55 42h28c0.828 0 1.5-0.671 1.5-1.5S83.828 39 83 39z" fill="#ffffff" data-fill-palette-color="accent"></path><path d="M83 45H55c-0.828 0-1.5 0.671-1.5 1.5S54.172 48 55 48h28c0.828 0 1.5-0.671 1.5-1.5S83.828 45 83 45z" fill="#ffffff" data-fill-palette-color="accent"></path><path d="M83 51H55c-0.828 0-1.5 0.672-1.5 1.5S54.172 54 55 54h28c0.828 0 1.5-0.672 1.5-1.5S83.828 51 83 51z" fill="#ffffff" data-fill-palette-color="accent"></path></g></svg></g></svg></g><g></g></svg></g></svg></g></svg></g><defs></defs></svg><rect width="320" height="360" fill="none" stroke="none" visibility="hidden"></rect></g></svg></g></svg>